<svg xmlns="http://www.w3.org/2000/svg" width="48" height="48" viewBox="0 0 48 48">
  <rect width="48" height="48" rx="10" fill="#863bff"/>
  <path fill="#ffffff" d="M24 14a10 10 0 1 0 0 20 10 10 0 0 0 0-20zm0 15a5 5 0 1 1 0-10 5 5 0 0 1 0 10z"/>
  <path fill="#ffffff" d="M39.3 20.6l-2.1-.4a13.6 13.6 0 0 0-1.1-2.7l1.2-1.7a1 1 0 0 0-.1-1.3l-3.7-3.7a1 1 0 0 0-1.3-.1l-1.7 1.2a13.6 13.6 0 0 0-2.7-1.1l-.4-2.1A1 1 0 0 0 26.4 8h-5.2a1 1 0 0 0-1 .8l-.4 2.1a13.6 13.6 0 0 0-2.7 1.1l-1.7-1.2a1 1 0 0 0-1.3.1l-3.7 3.7a1 1 0 0 0-.1 1.3l1.2 1.7a13.6 13.6 0 0 0-1.1 2.7l-2.1.4A1 1 0 0 0 8 21.6v5.2a1 1 0 0 0 .8 1l2.1.4a13.6 13.6 0 0 0 1.1 2.7l-1.2 1.7a1 1 0 0 0 .1 1.3l3.7 3.7a1 1 0 0 0 1.3.1l1.7-1.2a13.6 13.6 0 0 0 2.7 1.1l.4 2.1a1 1 0 0 0 1 .8h5.2a1 1 0 0 0 1-.8l.4-2.1a13.6 13.6 0 0 0 2.7-1.1l1.7 1.2a1 1 0 0 0 1.3-.1l3.7-3.7a1 1 0 0 0 .1-1.3l-1.2-1.7a13.6 13.6 0 0 0 1.1-2.7l2.1-.4a1 1 0 0 0 .8-1v-5.2a1 1 0 0 0-.8-1zM24 31a7 7 0 1 1 0-14 7 7 0 0 1 0 14z"/>
</svg>
